<?xml version="1.0" encoding="utf-8"?>
<!-- Generator: Adobe Illustrator 19.2.1, SVG Export Plug-In . SVG Version: 6.00 Build 0)  -->
<svg version="1.1" id="Layer_1" xmlns="http://www.w3.org/2000/svg" xmlns:xlink="http://www.w3.org/1999/xlink" x="0px" y="0px"
	 viewBox="0 0 381 382.5" style="enable-background:new 0 0 381 382.5;" xml:space="preserve">
<style type="text/css">
	.st0{fill:#FFFFFF;}
</style>
<path class="st0" d="M60.6,64.6c-70.3,70.3-70.3,184.3,0,254.6s184.3,70.3,254.6,0s70.3-184.3,0-254.6S130.9-5.7,60.6,64.6z
	 M297.5,301.5C237,362,138.8,362,78.3,301.5s-60.5-158.7,0-219.2s158.7-60.5,219.2,0S358,241,297.5,301.5z"/>
<path class="st0" d="M149.7,296h-5.5c-8.9,0-16.3-7.3-16.3-16.3V109.3c0-8.9,7.3-16.3,16.3-16.3h5.5c8.9,0,16.3,7.3,16.3,16.3v170.5
	C166,288.7,158.7,296,149.7,296z"/>
<path class="st0" d="M237.7,296h-5.5c-8.9,0-16.3-7.3-16.3-16.3V109.3c0-8.9,7.3-16.3,16.3-16.3h5.5c8.9,0,16.3,7.3,16.3,16.3v170.5
	C254,288.7,246.7,296,237.7,296z"/>
</svg>
