<?xml version="1.0" encoding="utf-8"?>
<!-- Generator: Adobe Illustrator 19.2.1, SVG Export Plug-In . SVG Version: 6.00 Build 0)  -->
<svg version="1.1" id="Layer_1" xmlns="http://www.w3.org/2000/svg" xmlns:xlink="http://www.w3.org/1999/xlink" x="0px" y="0px"
	 viewBox="0 0 381 382.5" style="enable-background:new 0 0 381 382.5;" xml:space="preserve">
<style type="text/css">
	.st0{fill:#FFFFFF;}
</style>
<path class="st0" d="M60.6,64.6c-70.3,70.3-70.3,184.3,0,254.6s184.3,70.3,254.6,0c70.3-70.3,70.3-184.3,0-254.6
	C244.9-5.7,130.9-5.7,60.6,64.6z M297.5,301.5C237,362,138.8,362,78.3,301.5c-60.5-60.5-60.5-158.7,0-219.2
	c60.5-60.5,158.7-60.5,219.2,0C358,142.8,358,241,297.5,301.5z"/>
<g>
	<path class="st0" d="M128.9,105.9c0-9.9,7.2-14.2,15.9-9.6L284,183.5c8.8,4.6,8.8,12.2,0,16.8l-139.1,87.2
		c-8.8,4.6-15.9,0.3-15.9-9.6L128.9,105.9z"/>
</g>
</svg>
