<svg id="Layer_1" data-name="Layer 1" xmlns="http://www.w3.org/2000/svg" viewBox="0 0 559.86 491.66"><title>Untitled-1</title><path d="M620.42,100.22V75.08H617v-5q0.53-.32,1.41-0.74t1.37-.69a4.94,4.94,0,0,0,1.09-.87,5.35,5.35,0,0,0,1-1.45h5v33.86h-6.47Z" transform="translate(-112.67 -61.45)" style="fill:#fff"/><path d="M630.48,90.29V76.36a15.15,15.15,0,0,1,.54-4.15,10.49,10.49,0,0,1,1.61-3.36,7.23,7.23,0,0,1,2.85-2.29,10.66,10.66,0,0,1,8.24,0,7.2,7.2,0,0,1,2.85,2.3,10.61,10.61,0,0,1,1.61,3.36,15.05,15.05,0,0,1,.54,4.14V90.29a14.1,14.1,0,0,1-.56,4.05,10.58,10.58,0,0,1-1.66,3.36A7.71,7.71,0,0,1,643.6,100a9.07,9.07,0,0,1-4,.86,9.31,9.31,0,0,1-4.05-.85,7.53,7.53,0,0,1-2.87-2.31A10.54,10.54,0,0,1,631,94.36,14.42,14.42,0,0,1,630.48,90.29Zm11.66,0V76.36q0-4.87-2.54-4.87a2,2,0,0,0-1.18.36,2.43,2.43,0,0,0-.74.85,4.52,4.52,0,0,0-.4,1.23,9.84,9.84,0,0,0-.17,1.25q0,0.51,0,1.18V90.29q0,0.58,0,1.14a10.21,10.21,0,0,0,.2,1.26,4.93,4.93,0,0,0,.41,1.22,2.48,2.48,0,0,0,.74.88,1.82,1.82,0,0,0,1.12.36,1.9,1.9,0,0,0,1.33-.5,2.84,2.84,0,0,0,.79-1.33,9.46,9.46,0,0,0,.33-1.54A12.58,12.58,0,0,0,642.13,90.29Z" transform="translate(-112.67 -61.45)" style="fill:#fff"/><path d="M617.15,121.43V105.29h3.91L622.78,116l1.86-10.76h3.77v16.14H626l-0.07-11.35q-0.27,1.75-.94,5.68T624,121.43h-2.44l-2-11.42-0.07,11.42h-2.41Z" transform="translate(-112.67 -61.45)" style="fill:#fff"/><path d="M630.33,121.43V105.29h6.73v2.24h-3.47v4.39H636v2.29h-2.46v5h3.47v2.24h-6.73Z" transform="translate(-112.67 -61.45)" style="fill:#fff"/><path d="M639.76,121.43v-13.7h-2.37v-2.44h8v2.44H643v13.7h-3.26Z" transform="translate(-112.67 -61.45)" style="fill:#fff"/><path d="M646.43,121.43V105.29h6.73v2.24h-3.47v4.39h2.46v2.29h-2.46v5h3.47v2.24h-6.73Z" transform="translate(-112.67 -61.45)" style="fill:#fff"/><path d="M654.33,121.43V105.29h3.55a8.87,8.87,0,0,1,2.13.23,4.73,4.73,0,0,1,1.61.72,3.07,3.07,0,0,1,1,1.32,5,5,0,0,1,.36,2c0,0.33,0,.63,0,0.9a5.82,5.82,0,0,1-.17.9,3.58,3.58,0,0,1-.35.9,3.13,3.13,0,0,1-.65.77,3.69,3.69,0,0,1-1,.63q1.45,4.61,2.53,7.8H660L658.13,114h-0.54v7.43h-3.26Zm3.26-9.42h0.93a0.91,0.91,0,0,0,.65-0.25,1.44,1.44,0,0,0,.39-0.64,4.82,4.82,0,0,0,.17-0.71,4.12,4.12,0,0,0,0-.61,4.6,4.6,0,0,0,0-.59,5.17,5.17,0,0,0-.14-0.68,1.36,1.36,0,0,0-.34-0.61,0.79,0.79,0,0,0-.58-0.24h-1.08V112Z" transform="translate(-112.67 -61.45)" style="fill:#fff"/><path d="M663.83,116.81l3.31-.64q0,0.49,0,.87a6.56,6.56,0,0,0,.09.82,2.89,2.89,0,0,0,.21.73,1.3,1.3,0,0,0,.37.48,0.86,0.86,0,0,0,.56.19,1,1,0,0,0,1-1.24,4.64,4.64,0,0,0-1.91-3.37l-1-.86q-0.48-.4-0.77-0.67a9.25,9.25,0,0,1-.68-0.73,4.69,4.69,0,0,1-.61-0.88,5.21,5.21,0,0,1-.53-2.3,4,4,0,0,1,1.25-3.11,4.7,4.7,0,0,1,3.31-1.14,3.94,3.94,0,0,1,2.91,1.22,4,4,0,0,1,1.2,2.94v0.39l-3.37.47c0-.07,0-0.17,0-0.31s0-.25,0-0.34a4.2,4.2,0,0,0,0-.62,3.37,3.37,0,0,0-.15-0.59,1,1,0,0,0-.32-0.47,0.79,0.79,0,0,0-.52-0.17,0.89,0.89,0,0,0-.81.42,1.82,1.82,0,0,0-.27,1,2.76,2.76,0,0,0,.16.94,2.68,2.68,0,0,0,.47.82,6.94,6.94,0,0,0,.59.63q0.27,0.25.72,0.61l0.64,0.53a13.92,13.92,0,0,1,1.17,1.14,8.85,8.85,0,0,1,.9,1.21,5.34,5.34,0,0,1,.63,1.45,6.48,6.48,0,0,1,.21,1.69,3.55,3.55,0,0,1-1.21,2.77,4.26,4.26,0,0,1-2.94,1.08,4.58,4.58,0,0,1-2-.41,3.71,3.71,0,0,1-1.4-1.12,5.47,5.47,0,0,1-.82-1.57A6.79,6.79,0,0,1,663.83,116.81Z" transform="translate(-112.67 -61.45)" style="fill:#fff"/><path d="M146.53,340.56H121.39V344h-5q-0.32-.53-0.74-1.41T115,341.2a4.94,4.94,0,0,0-.87-1.09,5.35,5.35,0,0,0-1.45-1v-5h33.86v6.47Z" transform="translate(-112.67 -61.45)" style="fill:#fff"/><path d="M146.05,325.45H129.92v-3.91l10.76-1.72L129.92,318v-3.77h16.14v2.4l-11.35.07q1.75,0.27,5.68.94t5.67,0.94V321l-11.42,2L146.05,323v2.41Z" transform="translate(-112.67 -61.45)" style="fill:#fff"/><path d="M146.05,312.27H129.92v-6.73h2.24V309h4.39v-2.46h2.3V309h5v-3.47h2.24v6.73Z" transform="translate(-112.67 -61.45)" style="fill:#fff"/><path d="M146.05,302.84h-13.7v2.37h-2.44v-8h2.44v2.32h13.7v3.26Z" transform="translate(-112.67 -61.45)" style="fill:#fff"/><path d="M146.05,296.17H129.92v-6.73h2.24v3.47h4.39v-2.46h2.3v2.46h5v-3.47h2.24v6.73Z" transform="translate(-112.67 -61.45)" style="fill:#fff"/><path d="M146.05,288.27H129.92v-3.55a8.87,8.87,0,0,1,.23-2.13,4.73,4.73,0,0,1,.72-1.61,3.07,3.07,0,0,1,1.32-1,5,5,0,0,1,2-.36c0.33,0,.63,0,0.9,0a5.81,5.81,0,0,1,.9.17,3.59,3.59,0,0,1,.9.35,3.15,3.15,0,0,1,.77.65,3.69,3.69,0,0,1,.63,1q4.61-1.45,7.8-2.53v3.38l-7.43,1.85V285h7.43v3.26ZM136.63,285v-0.93a0.91,0.91,0,0,0-.25-0.65,1.44,1.44,0,0,0-.64-0.39,4.82,4.82,0,0,0-.71-0.17,4.13,4.13,0,0,0-.61,0,4.6,4.6,0,0,0-.59,0,5.17,5.17,0,0,0-.68.14,1.35,1.35,0,0,0-.61.34,0.79,0.79,0,0,0-.24.58V285h4.32Z" transform="translate(-112.67 -61.45)" style="fill:#fff"/><path d="M651.63,73.16V66.51a7.21,7.21,0,0,1,.26-2,5,5,0,0,1,.77-1.6A3.44,3.44,0,0,1,654,61.84a5.08,5.08,0,0,1,3.93,0,3.43,3.43,0,0,1,1.36,1.1,5.09,5.09,0,0,1,.77,1.6,7.2,7.2,0,0,1,.25,2v6.64a6.74,6.74,0,0,1-.27,1.93,5.06,5.06,0,0,1-.79,1.6,3.69,3.69,0,0,1-1.37,1.11,4.33,4.33,0,0,1-1.91.41,4.44,4.44,0,0,1-1.93-.4,3.6,3.6,0,0,1-1.37-1.1,5,5,0,0,1-.78-1.6A6.84,6.84,0,0,1,651.63,73.16Zm5.56,0V66.51q0-2.32-1.21-2.32a0.93,0.93,0,0,0-.57.17,1.16,1.16,0,0,0-.35.4,2.14,2.14,0,0,0-.19.59,4.84,4.84,0,0,0-.08.6c0,0.16,0,.35,0,0.57v6.64c0,0.18,0,.37,0,0.54a4.8,4.8,0,0,0,.09.6,2.36,2.36,0,0,0,.2.58,1.18,1.18,0,0,0,.35.42,0.87,0.87,0,0,0,.53.17,0.91,0.91,0,0,0,.64-0.24A1.35,1.35,0,0,0,657,74.6a4.48,4.48,0,0,0,.16-0.74A6.14,6.14,0,0,0,657.19,73.16Z" transform="translate(-112.67 -61.45)" style="fill:#fff"/><path d="M641.44,553.11H161.17a2,2,0,0,1-2-2V70.84a2,2,0,0,1,2-2H608.11a2,2,0,0,1,0,4H163.17V549.11H639.44V133.42a2,2,0,0,1,4,0V551.11A2,2,0,0,1,641.44,553.11Z" transform="translate(-112.67 -61.45)" style="fill:#fff"/><path d="M133.5,266.5a0.5,0.5,0,0,1-.5-0.5V72a0.5,0.5,0,0,1,1,0V266A0.5,0.5,0,0,1,133.5,266.5Z" transform="translate(-112.67 -61.45)" style="fill:#fff"/><path d="M143,73H126a0.5,0.5,0,0,1,0-1h17A0.5,0.5,0,0,1,143,73Z" transform="translate(-112.67 -61.45)" style="fill:#fff"/><path d="M133.5,551.5a0.5,0.5,0,0,1-.5-0.5V363a0.5,0.5,0,0,1,1,0V551A0.5,0.5,0,0,1,133.5,551.5Z" transform="translate(-112.67 -61.45)" style="fill:#fff"/><path d="M143,553H126a0.5,0.5,0,0,1,0-1h17A0.5,0.5,0,0,1,143,553Z" transform="translate(-112.67 -61.45)" style="fill:#fff"/></svg>